<svg width="19" height="16" viewBox="0 0 19 16" fill="none" xmlns="http://www.w3.org/2000/svg">
<path d="M11.6709 0.454058L18.4209 7.20406C18.5258 7.30857 18.609 7.43277 18.6658 7.56951C18.7226 7.70626 18.7518 7.85287 18.7518 8.00093C18.7518 8.149 18.7226 8.29561 18.6658 8.43235C18.609 8.5691 18.5258 8.69329 18.4209 8.79781L11.6709 15.5478C11.4596 15.7592 11.1729 15.8779 10.8741 15.8779C10.5752 15.8779 10.2885 15.7592 10.0772 15.5478C9.86584 15.3365 9.74711 15.0498 9.74711 14.7509C9.74711 14.452 9.86584 14.1654 10.0772 13.9541L14.9063 9.125L1.125 9.125C0.826632 9.125 0.540483 9.00647 0.329505 8.79549C0.118527 8.58451 9.03849e-08 8.29836 9.39429e-08 8C9.75009e-08 7.70163 0.118527 7.41548 0.329505 7.2045C0.540483 6.99352 0.826632 6.875 1.125 6.875L14.9063 6.875L10.0763 2.04593C9.86491 1.83459 9.74617 1.54795 9.74617 1.24906C9.74617 0.950173 9.86491 0.663529 10.0763 0.452184C10.2876 0.240839 10.5742 0.122105 10.8731 0.122105C11.172 0.122105 11.4587 0.240839 11.67 0.452184L11.6709 0.454058Z" fill="#484141"/>
</svg>
