<svg width="21" height="16" viewBox="0 0 21 16" fill="none" xmlns="http://www.w3.org/2000/svg">
<path d="M19.5 0.125H1.5C1.20163 0.125 0.915483 0.243526 0.704505 0.454505C0.493526 0.665483 0.375 0.951631 0.375 1.25V14C0.375 14.4973 0.572544 14.9742 0.924175 15.3258C1.27581 15.6775 1.75272 15.875 2.25 15.875H18.75C19.2473 15.875 19.7242 15.6775 20.0758 15.3258C20.4275 14.9742 20.625 14.4973 20.625 14V1.25C20.625 0.951631 20.5065 0.665483 20.2955 0.454505C20.0845 0.243526 19.7984 0.125 19.5 0.125ZM10.5 7.97375L4.39219 2.375H16.6078L10.5 7.97375ZM7.19906 8L2.625 12.1925V3.8075L7.19906 8ZM8.86406 9.52625L9.73969 10.3297C9.94719 10.52 10.2185 10.6255 10.5 10.6255C10.7815 10.6255 11.0528 10.52 11.2603 10.3297L12.1359 9.52625L16.6078 13.625H4.39219L8.86406 9.52625ZM13.8009 8L18.375 3.8075V12.1925L13.8009 8Z" fill="black" fill-opacity="0.4"/>
</svg>
