<svg width="164" height="24" viewBox="0 0 164 24" fill="none" xmlns="http://www.w3.org/2000/svg">
<path d="M10.016 23.384C8.224 23.384 6.50667 23.1493 4.864 22.68C3.22133 22.1893 1.89867 21.56 0.896 20.792L2.656 16.888C3.616 17.5707 4.74667 18.136 6.048 18.584C7.37067 19.0107 8.704 19.224 10.048 19.224C11.072 19.224 11.8933 19.128 12.512 18.936C13.152 18.7227 13.6213 18.4347 13.92 18.072C14.2187 17.7093 14.368 17.2933 14.368 16.824C14.368 16.2267 14.1333 15.7573 13.664 15.416C13.1947 15.0533 12.576 14.7653 11.808 14.552C11.04 14.3173 10.1867 14.104 9.248 13.912C8.33067 13.6987 7.40267 13.4427 6.464 13.144C5.54667 12.8453 4.704 12.4613 3.936 11.992C3.168 11.5227 2.53867 10.904 2.048 10.136C1.57867 9.368 1.344 8.38667 1.344 7.192C1.344 5.912 1.68533 4.74933 2.368 3.704C3.072 2.63733 4.11733 1.79467 5.504 1.176C6.912 0.535999 8.672 0.216 10.784 0.216C12.192 0.216 13.5787 0.386666 14.944 0.727999C16.3093 1.048 17.5147 1.53867 18.56 2.2L16.96 6.136C15.9147 5.53867 14.8693 5.10133 13.824 4.824C12.7787 4.52533 11.7547 4.376 10.752 4.376C9.74933 4.376 8.928 4.49333 8.288 4.728C7.648 4.96267 7.18933 5.272 6.912 5.656C6.63467 6.01867 6.496 6.44533 6.496 6.936C6.496 7.512 6.73067 7.98133 7.2 8.344C7.66933 8.68533 8.288 8.96267 9.056 9.176C9.824 9.38933 10.6667 9.60267 11.584 9.816C12.5227 10.0293 13.4507 10.2747 14.368 10.552C15.3067 10.8293 16.16 11.2027 16.928 11.672C17.696 12.1413 18.3147 12.76 18.784 13.528C19.2747 14.296 19.52 15.2667 19.52 16.44C19.52 17.6987 19.168 18.8507 18.464 19.896C17.76 20.9413 16.704 21.784 15.296 22.424C13.9093 23.064 12.1493 23.384 10.016 23.384ZM38.4223 0.599998H43.6063V23H38.4223V0.599998ZM28.2463 23H23.0623V0.599998H28.2463V23ZM38.8063 13.816H27.8623V9.432H38.8063V13.816ZM59.786 23.384C58.0153 23.384 56.3727 23.096 54.858 22.52C53.3647 21.944 52.0633 21.1333 50.954 20.088C49.866 19.0427 49.0127 17.816 48.394 16.408C47.7967 15 47.498 13.464 47.498 11.8C47.498 10.136 47.7967 8.6 48.394 7.192C49.0127 5.784 49.8767 4.55733 50.986 3.512C52.0953 2.46667 53.3967 1.656 54.89 1.08C56.3833 0.503999 58.0047 0.216 59.754 0.216C61.5247 0.216 63.146 0.503999 64.618 1.08C66.1113 1.656 67.402 2.46667 68.49 3.512C69.5993 4.55733 70.4633 5.784 71.082 7.192C71.7007 8.57867 72.01 10.1147 72.01 11.8C72.01 13.464 71.7007 15.0107 71.082 16.44C70.4633 17.848 69.5993 19.0747 68.49 20.12C67.402 21.144 66.1113 21.944 64.618 22.52C63.146 23.096 61.5353 23.384 59.786 23.384ZM59.754 18.968C60.7567 18.968 61.674 18.7973 62.506 18.456C63.3593 18.1147 64.106 17.624 64.746 16.984C65.386 16.344 65.8767 15.5867 66.218 14.712C66.5807 13.8373 66.762 12.8667 66.762 11.8C66.762 10.7333 66.5807 9.76267 66.218 8.888C65.8767 8.01333 65.386 7.256 64.746 6.616C64.1273 5.976 63.3913 5.48533 62.538 5.144C61.6847 4.80267 60.7567 4.632 59.754 4.632C58.7513 4.632 57.8233 4.80267 56.97 5.144C56.138 5.48533 55.402 5.976 54.762 6.616C54.122 7.256 53.6207 8.01333 53.258 8.888C52.9167 9.76267 52.746 10.7333 52.746 11.8C52.746 12.8453 52.9167 13.816 53.258 14.712C53.6207 15.5867 54.1113 16.344 54.73 16.984C55.37 17.624 56.1167 18.1147 56.97 18.456C57.8233 18.7973 58.7513 18.968 59.754 18.968ZM75.906 23V0.599998H85.602C87.6073 0.599998 89.3353 0.930665 90.786 1.592C92.2367 2.232 93.3567 3.16 94.146 4.376C94.9353 5.592 95.33 7.04267 95.33 8.728C95.33 10.392 94.9353 11.832 94.146 13.048C93.3567 14.264 92.2367 15.2027 90.786 15.864C89.3353 16.504 87.6073 16.824 85.602 16.824H78.786L81.09 14.488V23H75.906ZM81.09 15.064L78.786 12.6H85.314C86.914 12.6 88.1087 12.2587 88.898 11.576C89.6873 10.8933 90.082 9.944 90.082 8.728C90.082 7.49067 89.6873 6.53067 88.898 5.848C88.1087 5.16533 86.914 4.824 85.314 4.824H78.786L81.09 2.36V15.064ZM99.031 23V0.599998H108.727C110.732 0.599998 112.46 0.930665 113.911 1.592C115.362 2.232 116.482 3.16 117.271 4.376C118.06 5.592 118.455 7.04267 118.455 8.728C118.455 10.392 118.06 11.832 117.271 13.048C116.482 14.264 115.362 15.2027 113.911 15.864C112.46 16.504 110.732 16.824 108.727 16.824H101.911L104.215 14.488V23H99.031ZM104.215 15.064L101.911 12.6H108.439C110.039 12.6 111.234 12.2587 112.023 11.576C112.812 10.8933 113.207 9.944 113.207 8.728C113.207 7.49067 112.812 6.53067 112.023 5.848C111.234 5.16533 110.039 4.824 108.439 4.824H101.911L104.215 2.36V15.064ZM126.924 9.624H137.708V13.656H126.924V9.624ZM127.308 18.84H139.5V23H122.156V0.599998H139.084V4.76H127.308V18.84ZM143.625 23V0.599998H153.321C155.326 0.599998 157.054 0.930665 158.505 1.592C159.955 2.232 161.075 3.16 161.865 4.376C162.654 5.592 163.049 7.04267 163.049 8.728C163.049 10.392 162.654 11.832 161.865 13.048C161.075 14.2427 159.955 15.16 158.505 15.8C157.054 16.44 155.326 16.76 153.321 16.76H146.505L148.809 14.488V23H143.625ZM157.865 23L152.265 14.872H157.801L163.465 23H157.865ZM148.809 15.064L146.505 12.632H153.033C154.633 12.632 155.827 12.2907 156.617 11.608C157.406 10.904 157.801 9.944 157.801 8.728C157.801 7.49067 157.406 6.53067 156.617 5.848C155.827 5.16533 154.633 4.824 153.033 4.824H146.505L148.809 2.36V15.064Z" fill="#484141"/>
</svg>
