<svg width="18" height="21" viewBox="0 0 18 21" fill="none" xmlns="http://www.w3.org/2000/svg">
<path fill-rule="evenodd" clip-rule="evenodd" d="M15.3472 5.07383C14.8282 8.09931 12.0063 10.3261 8.69372 10.324H5.11454C4.70016 10.3197 4.34583 10.5987 4.28426 10.9776L3.43154 15.8957C3.36996 16.2747 3.01564 16.5537 2.60125 16.5494H0.570432C0.403373 16.5552 0.242533 16.4904 0.133377 16.3733C0.02422 16.2562 -0.0213929 16.0996 0.00943102 15.9476L2.64613 0.871651C2.73503 0.364216 3.2123 -0.00652845 3.76814 8.71477e-05H11.6221C12.7607 0.00132095 13.8427 0.459487 14.5876 1.25582C15.3325 2.05216 15.6669 3.10827 15.5043 4.15039L15.3472 5.07383ZM17.8038 9.22418L17.9609 8.30074C18.1052 7.35953 17.8388 6.40389 17.2203 5.64454C16.4214 9.41572 12.8487 12.1371 8.69313 12.1398H6.78573C6.42912 12.1444 6.11442 12.3565 6.00033 12.6689L4.73247 20.098C4.70211 20.2481 4.74633 20.4029 4.85291 20.5195C4.95949 20.6362 5.11713 20.7024 5.28225 20.6998H7.31307C7.72825 20.7004 8.08356 20.4244 8.15457 20.0461L8.99607 15.128C9.0621 14.7513 9.41372 14.4745 9.82635 14.4743H11.1054C14.435 14.4969 17.2822 12.2653 17.8038 9.22418Z" fill="#484141"/>
</svg>
