<svg width="35" height="10" viewBox="0 0 35 10" fill="none" xmlns="http://www.w3.org/2000/svg">
<path fill-rule="evenodd" clip-rule="evenodd" d="M4.42557 0.646026H1.73808C1.55417 0.646026 1.39776 0.779672 1.36908 0.961141L0.282116 7.85188C0.260512 7.98789 0.365824 8.11045 0.503761 8.11045H1.7868C1.9707 8.11045 2.12712 7.9768 2.15579 7.79497L2.44896 5.93645C2.47724 5.75444 2.63403 5.62097 2.81756 5.62097H3.66833C5.43868 5.62097 6.46033 4.76436 6.72729 3.06695C6.8475 2.32434 6.73239 1.74084 6.3845 1.33208C6.00261 0.883498 5.32502 0.646026 4.42557 0.646026ZM4.73563 3.16277C4.58869 4.12703 3.85186 4.12703 3.13941 4.12703H2.73385L3.01836 2.32616C3.03526 2.21743 3.12957 2.13724 3.23961 2.13724H3.42548C3.91079 2.13724 4.36865 2.13724 4.60524 2.4138C4.74618 2.57891 4.78946 2.82402 4.73563 3.16277ZM12.4592 3.13186H11.1722C11.0625 3.13186 10.9678 3.21205 10.9509 3.32097L10.8939 3.68082L10.8039 3.55044C10.5253 3.14604 9.9041 3.01094 9.28398 3.01094C7.8617 3.01094 6.6471 4.08794 6.4105 5.59879C6.28757 6.3523 6.46233 7.07291 6.88987 7.57549C7.28213 8.03753 7.84333 8.23009 8.51092 8.23009C9.65678 8.23009 10.2924 7.4933 10.2924 7.4933L10.2349 7.85097C10.2133 7.98771 10.3185 8.11027 10.4557 8.11027H11.615C11.7994 8.11027 11.9549 7.97662 11.984 7.79478L12.6796 3.39043C12.7016 3.25496 12.5966 3.13186 12.4592 3.13186ZM10.6652 5.63643C10.541 6.37157 9.95739 6.86508 9.21324 6.86508C8.83953 6.86508 8.54074 6.74524 8.34907 6.51814C8.15885 6.29266 8.08647 5.97155 8.14703 5.61406C8.26305 4.8851 8.85644 4.3756 9.58931 4.3756C9.95466 4.3756 10.2518 4.49688 10.4475 4.72599C10.6435 4.95746 10.7214 5.2804 10.6652 5.63643ZM18.0201 3.13168H19.3134C19.4945 3.13168 19.6002 3.33479 19.4973 3.48335L15.1959 9.69148C15.1262 9.79203 15.0115 9.85186 14.8889 9.85186H13.5972C13.4153 9.85186 13.3091 9.64711 13.4144 9.49819L14.7538 7.60786L13.3293 3.42788C13.28 3.2826 13.3873 3.13168 13.5419 3.13168H14.8127C14.9778 3.13168 15.1235 3.24005 15.1711 3.39807L15.9271 5.92263L17.7109 3.29551C17.7807 3.19296 17.8968 3.13168 18.0201 3.13168Z" fill="#253B80"/>
<path fill-rule="evenodd" clip-rule="evenodd" d="M32.0426 7.85126L33.1456 0.834518C33.1625 0.7256 33.2569 0.645414 33.3665 0.64505H34.6082C34.7453 0.64505 34.8506 0.767968 34.829 0.903979L33.7413 7.79435C33.713 7.97618 33.5566 8.10983 33.3723 8.10983H32.2634C32.1263 8.10983 32.021 7.98728 32.0426 7.85126ZM23.5957 0.645411H20.9077C20.7242 0.645411 20.5678 0.779058 20.5391 0.960527L19.4521 7.85126C19.4305 7.98728 19.5358 8.10983 19.6731 8.10983H21.0523C21.1805 8.10983 21.2901 8.01637 21.3101 7.88909L21.6186 5.93584C21.6469 5.75382 21.8037 5.62036 21.9872 5.62036H22.8375C24.6082 5.62036 25.6297 4.76374 25.8969 3.06633C26.0174 2.32373 25.9016 1.74023 25.5539 1.33147C25.1722 0.882886 24.4951 0.645411 23.5957 0.645411ZM23.9057 3.16216C23.7592 4.12642 23.0223 4.12642 22.3094 4.12642H21.9043L22.1892 2.32555C22.2061 2.21681 22.2996 2.13662 22.41 2.13662H22.5958C23.0809 2.13662 23.5391 2.13662 23.7755 2.41319C23.9167 2.57829 23.9596 2.82341 23.9057 3.16216ZM31.6285 3.13125H30.3425C30.2319 3.13125 30.1381 3.21144 30.1215 3.32035L30.0646 3.6802L29.9742 3.54983C29.6956 3.14543 29.0748 3.01033 28.4546 3.01033C27.0324 3.01033 25.8181 4.08733 25.5815 5.59818C25.459 6.35169 25.633 7.07229 26.0605 7.57488C26.4535 8.03692 27.014 8.22948 27.6816 8.22948C28.8274 8.22948 29.4628 7.49269 29.4628 7.49269L29.4056 7.85036C29.3839 7.9871 29.4892 8.10965 29.6272 8.10965H30.786C30.9695 8.10965 31.1259 7.976 31.1546 7.79417L31.8506 3.38982C31.8719 3.25435 31.7666 3.13125 31.6285 3.13125ZM29.8347 5.63581C29.7113 6.37096 29.127 6.86446 28.3826 6.86446C28.0096 6.86446 27.7103 6.74463 27.5185 6.51752C27.3282 6.29205 27.2568 5.97094 27.3166 5.61345C27.4332 4.88448 28.0258 4.37499 28.7587 4.37499C29.1242 4.37499 29.4212 4.49627 29.6171 4.72538C29.8138 4.95685 29.8917 5.27978 29.8347 5.63581Z" fill="#179BD7"/>
</svg>
