<svg width="28" height="12" viewBox="0 0 28 12" fill="none" xmlns="http://www.w3.org/2000/svg">
<path d="M5.92002 2.08156C6.23102 1.69258 6.44205 1.17028 6.38639 0.636566C5.93115 0.659203 5.3756 0.936909 5.05397 1.3262C4.76518 1.65956 4.50958 2.20372 4.57621 2.71507C5.08725 2.7594 5.59782 2.45963 5.92002 2.08156Z" fill="#000008"/>
<path d="M6.38061 2.81491C5.63845 2.77071 5.00744 3.23612 4.65303 3.23612C4.29842 3.23612 3.75569 2.83719 3.16869 2.84794C2.40467 2.85917 1.69574 3.29115 1.30804 3.97821C0.510587 5.35266 1.09759 7.39146 1.87307 8.51087C2.24966 9.06468 2.70351 9.67447 3.30153 9.65256C3.86656 9.63039 4.08803 9.28669 4.77485 9.28669C5.46117 9.28669 5.66066 9.65256 6.25878 9.64148C6.87905 9.63039 7.26682 9.08739 7.64341 8.53304C8.07543 7.90173 8.25228 7.29214 8.2634 7.25868C8.25228 7.24759 7.06736 6.79303 7.05637 5.43C7.04518 4.28871 7.98667 3.74586 8.03098 3.71219C7.49931 2.92586 6.6686 2.83719 6.38061 2.81491Z" fill="#000008"/>
<path d="M12.8427 1.27037C14.4557 1.27037 15.579 2.38227 15.579 4.0011C15.579 5.62572 14.4326 6.74339 12.8022 6.74339H11.0163V9.58358H9.7259V1.27037L12.8427 1.27037ZM11.0163 5.66027H12.4969C13.6203 5.66027 14.2597 5.05543 14.2597 4.00688C14.2597 2.95844 13.6203 2.35926 12.5026 2.35926H11.0163V5.66027Z" fill="#000008"/>
<path d="M15.9161 7.86105C15.9161 6.80093 16.7284 6.14998 18.1688 6.0693L19.8278 5.9714V5.5048C19.8278 4.83073 19.3727 4.42746 18.6124 4.42746C17.8921 4.42746 17.4427 4.77306 17.3333 5.31467H16.1581C16.2272 4.22 17.1604 3.41347 18.6584 3.41347C20.1274 3.41347 21.0664 4.19122 21.0664 5.40679V9.58356H19.8738V8.5869H19.8451C19.4938 9.26097 18.7275 9.68724 17.9325 9.68724C16.7457 9.68724 15.9161 8.94983 15.9161 7.86105ZM19.8278 7.31377V6.83561L18.3357 6.92773C17.5925 6.97962 17.172 7.30799 17.172 7.82649C17.172 8.35643 17.6098 8.70213 18.2781 8.70213C19.148 8.70213 19.8278 8.10296 19.8278 7.31377Z" fill="#000008"/>
<path d="M22.1923 11.8131V10.8049C22.2843 10.8279 22.4916 10.8279 22.5954 10.8279C23.1715 10.8279 23.4826 10.586 23.6727 9.96382C23.6727 9.95226 23.7822 9.59512 23.7822 9.58934L21.5931 3.52292H22.941L24.4736 8.45444H24.4965L26.0291 3.52292H27.3426L25.0726 9.90037C24.5543 11.3695 23.9551 11.8419 22.6992 11.8419C22.5954 11.8419 22.2843 11.8303 22.1923 11.8131Z" fill="#000008"/>
</svg>
